<mxfile host="app.diagrams.net" modified="2020-09-20T14:39:29.724Z" agent="5.0 (Windows)" etag="2x0oIQACdidtdCWUy9YU" version="13.7.3" type="gitlab">
  <diagram id="VGiIOAWJNJRMQML0LhI-" name="Page-1">
    <mxGraphModel dx="2805" dy="2028" grid="1" gridSize="10" guides="1" tooltips="1" connect="1" arrows="1" fold="1" page="1" pageScale="1" pageWidth="850" pageHeight="1100" math="0" shadow="0">
      <root>
        <mxCell id="0" />
        <mxCell id="1" parent="0" />
        <mxCell id="b8bHE2o81W8VR08IkdRY-1" value="" style="rounded=0;whiteSpace=wrap;html=1;fillColor=#E6E6E6;fontFamily=Georgia;fontSize=25;" vertex="1" parent="1">
          <mxGeometry x="950" y="100" width="610" height="340" as="geometry" />
        </mxCell>
        <mxCell id="b8bHE2o81W8VR08IkdRY-2" value="" style="ellipse;whiteSpace=wrap;html=1;aspect=fixed;strokeColor=#2D7600;fontColor=#ffffff;fillColor=#60A917;fontFamily=Georgia;fontSize=25;" vertex="1" parent="1">
          <mxGeometry x="1275" y="155" width="30" height="30" as="geometry" />
        </mxCell>
        <mxCell id="b8bHE2o81W8VR08IkdRY-3" value="" style="ellipse;whiteSpace=wrap;html=1;aspect=fixed;strokeColor=#2D7600;fontColor=#ffffff;fillColor=#7EDE1E;fontFamily=Georgia;fontSize=25;" vertex="1" parent="1">
          <mxGeometry x="1275" y="235" width="30" height="30" as="geometry" />
        </mxCell>
        <mxCell id="b8bHE2o81W8VR08IkdRY-4" value="" style="ellipse;whiteSpace=wrap;html=1;aspect=fixed;strokeColor=#2D7600;fontColor=#ffffff;fillColor=#549414;fontFamily=Georgia;fontSize=25;" vertex="1" parent="1">
          <mxGeometry x="1275" y="195" width="30" height="30" as="geometry" />
        </mxCell>
        <mxCell id="b8bHE2o81W8VR08IkdRY-5" value="" style="ellipse;whiteSpace=wrap;html=1;aspect=fixed;strokeColor=#2D7600;fontColor=#ffffff;fillColor=#274509;fontFamily=Georgia;fontSize=25;" vertex="1" parent="1">
          <mxGeometry x="1315" y="155" width="30" height="30" as="geometry" />
        </mxCell>
        <mxCell id="b8bHE2o81W8VR08IkdRY-6" value="" style="ellipse;whiteSpace=wrap;html=1;aspect=fixed;fillColor=#60a917;strokeColor=#2D7600;fontColor=#ffffff;fontFamily=Georgia;fontSize=25;" vertex="1" parent="1">
          <mxGeometry x="1315" y="195" width="30" height="30" as="geometry" />
        </mxCell>
        <mxCell id="b8bHE2o81W8VR08IkdRY-7" value="" style="ellipse;whiteSpace=wrap;html=1;aspect=fixed;fillColor=#60a917;strokeColor=#2D7600;fontColor=#ffffff;fontFamily=Georgia;fontSize=25;" vertex="1" parent="1">
          <mxGeometry x="1355" y="155" width="30" height="30" as="geometry" />
        </mxCell>
        <mxCell id="b8bHE2o81W8VR08IkdRY-8" value="" style="ellipse;whiteSpace=wrap;html=1;aspect=fixed;strokeColor=#2D7600;fontColor=#ffffff;fillColor=#76CF1C;fontFamily=Georgia;fontSize=25;" vertex="1" parent="1">
          <mxGeometry x="1355" y="195" width="30" height="30" as="geometry" />
        </mxCell>
        <mxCell id="b8bHE2o81W8VR08IkdRY-9" value="" style="ellipse;whiteSpace=wrap;html=1;aspect=fixed;strokeColor=#2D7600;fontColor=#ffffff;fillColor=#81E31F;fontFamily=Georgia;fontSize=25;" vertex="1" parent="1">
          <mxGeometry x="1435" y="155" width="30" height="30" as="geometry" />
        </mxCell>
        <mxCell id="b8bHE2o81W8VR08IkdRY-10" value="" style="ellipse;whiteSpace=wrap;html=1;aspect=fixed;strokeColor=#2D7600;fontColor=#ffffff;fillColor=#1C3807;fontFamily=Georgia;fontSize=25;" vertex="1" parent="1">
          <mxGeometry x="1395" y="195" width="30" height="30" as="geometry" />
        </mxCell>
        <mxCell id="b8bHE2o81W8VR08IkdRY-11" value="" style="ellipse;whiteSpace=wrap;html=1;aspect=fixed;strokeColor=#2D7600;fontColor=#ffffff;fillColor=#3B690E;fontFamily=Georgia;fontSize=25;" vertex="1" parent="1">
          <mxGeometry x="1315" y="235" width="30" height="30" as="geometry" />
        </mxCell>
        <mxCell id="b8bHE2o81W8VR08IkdRY-12" value="" style="ellipse;whiteSpace=wrap;html=1;aspect=fixed;strokeColor=#2D7600;fontColor=#ffffff;fillColor=#60A818;fontFamily=Georgia;fontSize=25;" vertex="1" parent="1">
          <mxGeometry x="1355" y="235" width="30" height="30" as="geometry" />
        </mxCell>
        <mxCell id="b8bHE2o81W8VR08IkdRY-13" value="" style="ellipse;whiteSpace=wrap;html=1;aspect=fixed;fillColor=#60a917;strokeColor=#2D7600;fontColor=#ffffff;fontFamily=Georgia;fontSize=25;" vertex="1" parent="1">
          <mxGeometry x="1395" y="235" width="30" height="30" as="geometry" />
        </mxCell>
        <mxCell id="b8bHE2o81W8VR08IkdRY-14" value="" style="ellipse;whiteSpace=wrap;html=1;aspect=fixed;strokeColor=#2D7600;fontColor=#ffffff;fillColor=#40700F;fontFamily=Georgia;fontSize=25;" vertex="1" parent="1">
          <mxGeometry x="1395" y="235" width="30" height="30" as="geometry" />
        </mxCell>
        <mxCell id="b8bHE2o81W8VR08IkdRY-15" value="" style="ellipse;whiteSpace=wrap;html=1;aspect=fixed;fillColor=#60a917;strokeColor=#2D7600;fontColor=#ffffff;fontFamily=Georgia;fontSize=25;" vertex="1" parent="1">
          <mxGeometry x="1435" y="235" width="30" height="30" as="geometry" />
        </mxCell>
        <mxCell id="b8bHE2o81W8VR08IkdRY-16" value="" style="ellipse;whiteSpace=wrap;html=1;aspect=fixed;strokeColor=#2D7600;fontColor=#ffffff;fillColor=#447810;fontFamily=Georgia;fontSize=25;" vertex="1" parent="1">
          <mxGeometry x="1435" y="195" width="30" height="30" as="geometry" />
        </mxCell>
        <mxCell id="b8bHE2o81W8VR08IkdRY-17" value="" style="ellipse;whiteSpace=wrap;html=1;aspect=fixed;strokeColor=#2D7600;fontColor=#ffffff;fillColor=#417310;fontFamily=Georgia;fontSize=25;" vertex="1" parent="1">
          <mxGeometry x="1395" y="155" width="30" height="30" as="geometry" />
        </mxCell>
        <mxCell id="b8bHE2o81W8VR08IkdRY-18" value="&lt;font style=&quot;font-size: 25px;&quot;&gt;&lt;b style=&quot;font-size: 25px;&quot;&gt;&lt;font style=&quot;font-size: 25px;&quot;&gt;Yeast GFP Library&lt;br style=&quot;font-size: 25px;&quot;&gt;ORF-GFP::His3&lt;/font&gt;&lt;/b&gt;&lt;/font&gt;" style="text;html=1;align=center;verticalAlign=middle;resizable=0;points=[];autosize=1;fontFamily=Georgia;fontSize=25;" vertex="1" parent="1">
          <mxGeometry x="550" width="250" height="70" as="geometry" />
        </mxCell>
        <mxCell id="b8bHE2o81W8VR08IkdRY-19" value="" style="rounded=0;whiteSpace=wrap;html=1;fillColor=#D4E1F5;fontFamily=Georgia;fontSize=25;" vertex="1" parent="1">
          <mxGeometry x="1890" y="105" width="100" height="55" as="geometry" />
        </mxCell>
        <mxCell id="b8bHE2o81W8VR08IkdRY-20" value="" style="ellipse;whiteSpace=wrap;html=1;aspect=fixed;strokeColor=#2D7600;fontColor=#ffffff;fillColor=#60A917;fontFamily=Georgia;fontSize=25;" vertex="1" parent="1">
          <mxGeometry x="1902.5" y="117.5" width="30" height="30" as="geometry" />
        </mxCell>
        <mxCell id="b8bHE2o81W8VR08IkdRY-21" value="" style="ellipse;whiteSpace=wrap;html=1;aspect=fixed;strokeColor=#2D7600;fontColor=#ffffff;fillColor=#7EDE1E;fontFamily=Georgia;fontSize=25;" vertex="1" parent="1">
          <mxGeometry x="1947.5" y="117.5" width="30" height="30" as="geometry" />
        </mxCell>
        <mxCell id="b8bHE2o81W8VR08IkdRY-22" value="&lt;font style=&quot;font-size: 35px&quot;&gt;&lt;b&gt;&lt;font style=&quot;font-size: 35px&quot;&gt;+&lt;/font&gt;&lt;/b&gt;&lt;/font&gt;" style="text;html=1;align=center;verticalAlign=middle;resizable=0;points=[];autosize=1;fontFamily=Georgia;fontSize=25;" vertex="1" parent="1">
          <mxGeometry x="1645" y="112.5" width="40" height="40" as="geometry" />
        </mxCell>
        <mxCell id="b8bHE2o81W8VR08IkdRY-23" value="&lt;font style=&quot;font-size: 25px;&quot;&gt;&lt;b style=&quot;font-size: 25px;&quot;&gt;&lt;font style=&quot;font-size: 25px;&quot;&gt;DNA-damage sensors&lt;br style=&quot;font-size: 25px;&quot;&gt;&lt;/font&gt;&lt;/b&gt;&lt;/font&gt;" style="text;html=1;align=center;verticalAlign=middle;resizable=0;points=[];autosize=1;fontFamily=Georgia;fontSize=25;" vertex="1" parent="1">
          <mxGeometry x="1785" y="180" width="290" height="40" as="geometry" />
        </mxCell>
        <mxCell id="b8bHE2o81W8VR08IkdRY-25" value="&lt;font style=&quot;font-size: 25px&quot;&gt;&lt;b style=&quot;font-size: 25px&quot;&gt;&lt;font style=&quot;font-size: 25px&quot;&gt;Primary Biomolecular Module&lt;br&gt;&lt;/font&gt;&lt;/b&gt;&lt;/font&gt;" style="text;html=1;align=center;verticalAlign=middle;resizable=0;points=[];autosize=1;fontFamily=Georgia;fontSize=25;" vertex="1" parent="1">
          <mxGeometry x="1175" y="25" width="410" height="40" as="geometry" />
        </mxCell>
        <mxCell id="b8bHE2o81W8VR08IkdRY-26" value="&lt;font style=&quot;font-size: 25px&quot;&gt;&lt;b style=&quot;font-size: 25px&quot;&gt;&lt;font style=&quot;font-size: 25px&quot;&gt;Secondary Biomolecular Module&lt;br&gt;&lt;/font&gt;&lt;/b&gt;&lt;/font&gt;" style="text;html=1;align=center;verticalAlign=middle;resizable=0;points=[];autosize=1;fontFamily=Georgia;fontSize=25;" vertex="1" parent="1">
          <mxGeometry x="1685" y="20" width="440" height="40" as="geometry" />
        </mxCell>
        <mxCell id="b8bHE2o81W8VR08IkdRY-29" value="" style="edgeStyle=orthogonalEdgeStyle;rounded=0;orthogonalLoop=1;jettySize=auto;html=1;endArrow=none;endFill=0;" edge="1" parent="1" source="b8bHE2o81W8VR08IkdRY-31" target="b8bHE2o81W8VR08IkdRY-33">
          <mxGeometry relative="1" as="geometry" />
        </mxCell>
        <mxCell id="b8bHE2o81W8VR08IkdRY-30" value="" style="edgeStyle=orthogonalEdgeStyle;rounded=0;orthogonalLoop=1;jettySize=auto;html=1;endArrow=none;endFill=0;entryX=1;entryY=0.5;entryDx=0;entryDy=0;" edge="1" parent="1" source="b8bHE2o81W8VR08IkdRY-31" target="b8bHE2o81W8VR08IkdRY-34">
          <mxGeometry relative="1" as="geometry">
            <mxPoint x="905" y="560" as="targetPoint" />
          </mxGeometry>
        </mxCell>
        <mxCell id="b8bHE2o81W8VR08IkdRY-31" value="&lt;i&gt;&lt;b&gt;&lt;font style=&quot;font-size: 16px&quot;&gt;GFP&lt;/font&gt;&lt;/b&gt;&lt;/i&gt;" style="rounded=0;whiteSpace=wrap;html=1;fillColor=#60a917;strokeColor=#2D7600;fontColor=#ffffff;" vertex="1" parent="1">
          <mxGeometry x="1025" y="530" width="200" height="60" as="geometry" />
        </mxCell>
        <mxCell id="b8bHE2o81W8VR08IkdRY-32" value="" style="edgeStyle=orthogonalEdgeStyle;rounded=0;orthogonalLoop=1;jettySize=auto;html=1;endArrow=none;endFill=0;entryX=0;entryY=0.5;entryDx=0;entryDy=0;" edge="1" parent="1" source="b8bHE2o81W8VR08IkdRY-33" target="b8bHE2o81W8VR08IkdRY-35">
          <mxGeometry relative="1" as="geometry">
            <mxPoint x="1655" y="560" as="targetPoint" />
          </mxGeometry>
        </mxCell>
        <mxCell id="b8bHE2o81W8VR08IkdRY-33" value="&lt;i&gt;&lt;b&gt;&lt;font style=&quot;font-size: 16px&quot; face=&quot;Georgia&quot;&gt;HIS3MX6&lt;/font&gt;&lt;/b&gt;&lt;/i&gt;" style="rounded=0;whiteSpace=wrap;html=1;fillColor=#fad9d5;strokeColor=#ae4132;" vertex="1" parent="1">
          <mxGeometry x="1325" y="530" width="200" height="60" as="geometry" />
        </mxCell>
        <mxCell id="b8bHE2o81W8VR08IkdRY-34" value="" style="rounded=0;whiteSpace=wrap;html=1;fillColor=#0050ef;strokeColor=#001DBC;fontColor=#ffffff;" vertex="1" parent="1">
          <mxGeometry x="875" y="545" width="80" height="30" as="geometry" />
        </mxCell>
        <mxCell id="b8bHE2o81W8VR08IkdRY-35" value="" style="rounded=0;whiteSpace=wrap;html=1;fillColor=#e51400;strokeColor=#B20000;fontColor=#ffffff;" vertex="1" parent="1">
          <mxGeometry x="1605" y="545" width="80" height="30" as="geometry" />
        </mxCell>
        <mxCell id="b8bHE2o81W8VR08IkdRY-36" value="" style="edgeStyle=orthogonalEdgeStyle;rounded=0;orthogonalLoop=1;jettySize=auto;html=1;endArrow=none;endFill=0;" edge="1" parent="1" source="b8bHE2o81W8VR08IkdRY-42" target="b8bHE2o81W8VR08IkdRY-40">
          <mxGeometry relative="1" as="geometry" />
        </mxCell>
        <mxCell id="b8bHE2o81W8VR08IkdRY-37" value="" style="edgeStyle=orthogonalEdgeStyle;rounded=0;orthogonalLoop=1;jettySize=auto;html=1;endArrow=none;endFill=0;" edge="1" parent="1" source="b8bHE2o81W8VR08IkdRY-38">
          <mxGeometry relative="1" as="geometry">
            <mxPoint x="885" y="780" as="targetPoint" />
          </mxGeometry>
        </mxCell>
        <mxCell id="b8bHE2o81W8VR08IkdRY-38" value="&lt;b&gt;&lt;font style=&quot;font-size: 16px&quot; face=&quot;Georgia&quot;&gt;ORF&lt;/font&gt;&lt;/b&gt;" style="rounded=0;whiteSpace=wrap;html=1;fillColor=#f0a30a;strokeColor=#BD7000;fontColor=#ffffff;" vertex="1" parent="1">
          <mxGeometry x="955" y="750" width="200" height="60" as="geometry" />
        </mxCell>
        <mxCell id="b8bHE2o81W8VR08IkdRY-39" value="" style="edgeStyle=orthogonalEdgeStyle;rounded=0;orthogonalLoop=1;jettySize=auto;html=1;endArrow=none;endFill=0;" edge="1" parent="1" source="b8bHE2o81W8VR08IkdRY-40">
          <mxGeometry relative="1" as="geometry">
            <mxPoint x="1665" y="780" as="targetPoint" />
          </mxGeometry>
        </mxCell>
        <mxCell id="b8bHE2o81W8VR08IkdRY-40" value="&lt;font face=&quot;Georgia&quot;&gt;&lt;b&gt;&lt;font style=&quot;font-size: 16px&quot;&gt;ORF&lt;/font&gt;&lt;/b&gt;&lt;/font&gt;" style="rounded=0;whiteSpace=wrap;html=1;fillColor=#f0a30a;strokeColor=#BD7000;fontColor=#ffffff;" vertex="1" parent="1">
          <mxGeometry x="1395" y="750" width="200" height="60" as="geometry" />
        </mxCell>
        <mxCell id="b8bHE2o81W8VR08IkdRY-41" value="" style="rounded=0;whiteSpace=wrap;html=1;fillColor=#0050ef;strokeColor=#001DBC;fontColor=#ffffff;" vertex="1" parent="1">
          <mxGeometry x="1155" y="750" width="80" height="60" as="geometry" />
        </mxCell>
        <mxCell id="b8bHE2o81W8VR08IkdRY-42" value="" style="rounded=0;whiteSpace=wrap;html=1;fillColor=#e51400;strokeColor=#B20000;fontColor=#ffffff;" vertex="1" parent="1">
          <mxGeometry x="1235" y="765" width="80" height="30" as="geometry" />
        </mxCell>
        <mxCell id="b8bHE2o81W8VR08IkdRY-43" value="" style="edgeStyle=orthogonalEdgeStyle;rounded=0;orthogonalLoop=1;jettySize=auto;html=1;endArrow=none;endFill=0;exitX=1;exitY=0.5;exitDx=0;exitDy=0;" edge="1" parent="1" source="b8bHE2o81W8VR08IkdRY-45" target="b8bHE2o81W8VR08IkdRY-47">
          <mxGeometry relative="1" as="geometry">
            <mxPoint x="1255" y="990" as="sourcePoint" />
          </mxGeometry>
        </mxCell>
        <mxCell id="b8bHE2o81W8VR08IkdRY-44" value="" style="edgeStyle=orthogonalEdgeStyle;rounded=0;orthogonalLoop=1;jettySize=auto;html=1;endArrow=none;endFill=0;" edge="1" parent="1" source="b8bHE2o81W8VR08IkdRY-45">
          <mxGeometry relative="1" as="geometry">
            <mxPoint x="935" y="990" as="targetPoint" />
          </mxGeometry>
        </mxCell>
        <mxCell id="b8bHE2o81W8VR08IkdRY-45" value="&lt;b&gt;&lt;font style=&quot;font-size: 16px&quot; face=&quot;Georgia&quot;&gt;Protein&lt;/font&gt;&lt;/b&gt;" style="rounded=0;whiteSpace=wrap;html=1;fillColor=#f0a30a;strokeColor=#BD7000;fontColor=#ffffff;" vertex="1" parent="1">
          <mxGeometry x="1035" y="960" width="200" height="60" as="geometry" />
        </mxCell>
        <mxCell id="b8bHE2o81W8VR08IkdRY-46" value="" style="edgeStyle=orthogonalEdgeStyle;rounded=0;orthogonalLoop=1;jettySize=auto;html=1;endArrow=none;endFill=0;" edge="1" parent="1" source="b8bHE2o81W8VR08IkdRY-47">
          <mxGeometry relative="1" as="geometry">
            <mxPoint x="1605" y="990" as="targetPoint" />
            <Array as="points">
              <mxPoint x="1595" y="990" />
              <mxPoint x="1595" y="990" />
            </Array>
          </mxGeometry>
        </mxCell>
        <mxCell id="b8bHE2o81W8VR08IkdRY-47" value="&lt;b&gt;&lt;font style=&quot;font-size: 16px&quot; face=&quot;Georgia&quot;&gt;GFP&lt;/font&gt;&lt;/b&gt;" style="rounded=0;whiteSpace=wrap;html=1;fillColor=#60a917;strokeColor=#2D7600;fontColor=#ffffff;" vertex="1" parent="1">
          <mxGeometry x="1335" y="960" width="200" height="60" as="geometry" />
        </mxCell>
        <mxCell id="b8bHE2o81W8VR08IkdRY-48" value="&lt;font face=&quot;Georgia&quot;&gt;&lt;b&gt;&lt;font style=&quot;font-size: 16px&quot;&gt;COOH&lt;/font&gt;&lt;/b&gt;&lt;/font&gt;" style="text;html=1;align=center;verticalAlign=middle;resizable=0;points=[];autosize=1;" vertex="1" parent="1">
          <mxGeometry x="1605" y="980" width="70" height="20" as="geometry" />
        </mxCell>
        <mxCell id="b8bHE2o81W8VR08IkdRY-49" value="&lt;b&gt;&lt;font style=&quot;font-size: 16px&quot; face=&quot;Georgia&quot;&gt;NH&lt;sub&gt;2&lt;/sub&gt;&lt;/font&gt;&lt;/b&gt;" style="text;html=1;align=center;verticalAlign=middle;resizable=0;points=[];autosize=1;" vertex="1" parent="1">
          <mxGeometry x="885" y="980" width="50" height="20" as="geometry" />
        </mxCell>
        <mxCell id="b8bHE2o81W8VR08IkdRY-50" value="&lt;b&gt;&lt;font style=&quot;font-size: 16px&quot; face=&quot;Georgia&quot;&gt;Chromosome&lt;/font&gt;&lt;/b&gt;" style="text;html=1;align=center;verticalAlign=middle;resizable=0;points=[];autosize=1;" vertex="1" parent="1">
          <mxGeometry x="735" y="765" width="130" height="20" as="geometry" />
        </mxCell>
        <mxCell id="b8bHE2o81W8VR08IkdRY-51" value="&lt;b&gt;&lt;font style=&quot;font-size: 16px&quot; face=&quot;Georgia&quot;&gt;PCR Product&lt;/font&gt;&lt;/b&gt;" style="text;html=1;align=center;verticalAlign=middle;resizable=0;points=[];autosize=1;" vertex="1" parent="1">
          <mxGeometry x="740" y="550" width="120" height="20" as="geometry" />
        </mxCell>
        <mxCell id="b8bHE2o81W8VR08IkdRY-52" value="&lt;b&gt;&lt;font style=&quot;font-size: 16px&quot; face=&quot;Georgia&quot;&gt;Fusion Protein&lt;/font&gt;&lt;/b&gt;" style="text;html=1;align=center;verticalAlign=middle;resizable=0;points=[];autosize=1;" vertex="1" parent="1">
          <mxGeometry x="730" y="980" width="140" height="20" as="geometry" />
        </mxCell>
        <mxCell id="b8bHE2o81W8VR08IkdRY-53" value="" style="endArrow=none;html=1;exitX=0.5;exitY=1;exitDx=0;exitDy=0;entryX=0.5;entryY=0;entryDx=0;entryDy=0;" edge="1" parent="1" source="b8bHE2o81W8VR08IkdRY-34" target="b8bHE2o81W8VR08IkdRY-41">
          <mxGeometry width="50" height="50" relative="1" as="geometry">
            <mxPoint x="1005" y="670" as="sourcePoint" />
            <mxPoint x="1055" y="620" as="targetPoint" />
          </mxGeometry>
        </mxCell>
        <mxCell id="b8bHE2o81W8VR08IkdRY-54" value="" style="endArrow=none;html=1;exitX=0.5;exitY=0;exitDx=0;exitDy=0;entryX=0.533;entryY=1.011;entryDx=0;entryDy=0;entryPerimeter=0;" edge="1" parent="1" source="b8bHE2o81W8VR08IkdRY-42" target="b8bHE2o81W8VR08IkdRY-35">
          <mxGeometry width="50" height="50" relative="1" as="geometry">
            <mxPoint x="1375" y="610" as="sourcePoint" />
            <mxPoint x="1635" y="590" as="targetPoint" />
          </mxGeometry>
        </mxCell>
        <mxCell id="b8bHE2o81W8VR08IkdRY-55" value="&lt;div&gt;&lt;b&gt;&lt;font style=&quot;font-size: 16px&quot; face=&quot;Georgia&quot;&gt;Homologous&lt;/font&gt;&lt;/b&gt;&lt;/div&gt;&lt;div&gt;&lt;b&gt;&lt;font style=&quot;font-size: 16px&quot; face=&quot;Georgia&quot;&gt;Recombination&lt;/font&gt;&lt;/b&gt;&lt;/div&gt;" style="text;html=1;align=center;verticalAlign=middle;resizable=0;points=[];autosize=1;" vertex="1" parent="1">
          <mxGeometry x="1185" y="650" width="140" height="40" as="geometry" />
        </mxCell>
      </root>
    </mxGraphModel>
  </diagram>
</mxfile>
